# xmcd
#
# Track frame offsets:
#  150
#  8718
#  25957
#  42630
#  67942
#  83029
#  109245
#  123063
#  164188
#  173545
#  189709
#  213030
#  231450
#  251580
#  270015
#
# Disc length: 3840 seconds
#
# Revision: 0
# Processed by: cddbd v1.5.1PL2 Copyright (c) Steve Scherf et al.
# Submitted via: Collectorz.com_Music_Collector 6.11
#
DISCID=c20efe0f
DTITLE=Hair Of The Dog - Putting The Rhythm Back In The Blues
DYEAR=2005
DGENRE=Blues
TTITLE0=Scuttle Buttin'
TTITLE1=La Grange
TTITLE2=How Many Lies
TTITLE3=I Drink Alone
TTITLE4=My Baby
TTITLE5=She Grieves Me
TTITLE6=Adalaide Blues
TTITLE7=Driftin'
TTITLE8=Key To Love
TTITLE9=You Don' Love Me
TTITLE10=Sugar Turns To Alcohol
TTITLE11=Hair Of The Dog
TTITLE12=I'm Going Down
TTITLE13=Cold Black Night
TTITLE14=Scuttle Buttin'
EXTD=
EXTT0=
EXTT1=
EXTT2=
EXTT3=
EXTT4=
EXTT5=
EXTT6=
EXTT7=
EXTT8=
EXTT9=
EXTT10=
EXTT11=
EXTT12=
EXTT13=
EXTT14=
PLAYORDER=
